<?xml version="1.0" encoding="UTF-8" standalone="no"?>
<!-- Created with Inkscape (http://www.inkscape.org/) -->

<svg
   width="512"
   height="512"
   viewBox="0 0 135.46666 135.46666"
   version="1.1"
   id="svg1"
   xml:space="preserve"
   inkscape:version="1.3.2 (091e20e, 2023-11-25, custom)"
   sodipodi:docname="favicon.svg"
   inkscape:export-filename="favicon-64.png"
   inkscape:export-xdpi="12"
   inkscape:export-ydpi="12"
   xmlns:inkscape="http://www.inkscape.org/namespaces/inkscape"
   xmlns:sodipodi="http://sodipodi.sourceforge.net/DTD/sodipodi-0.dtd"
   xmlns="http://www.w3.org/2000/svg"
   xmlns:svg="http://www.w3.org/2000/svg"><sodipodi:namedview
     id="namedview1"
     pagecolor="#ffffff"
     bordercolor="#666666"
     borderopacity="1.0"
     inkscape:showpageshadow="2"
     inkscape:pageopacity="0.0"
     inkscape:pagecheckerboard="0"
     inkscape:deskcolor="#d1d1d1"
     inkscape:document-units="px"
     showguides="true"
     inkscape:zoom="1"
     inkscape:cx="203"
     inkscape:cy="312.5"
     inkscape:window-width="1920"
     inkscape:window-height="1009"
     inkscape:window-x="-8"
     inkscape:window-y="137"
     inkscape:window-maximized="1"
     inkscape:current-layer="layer1" /><defs
     id="defs1" /><g
     inkscape:label="Camada 1"
     inkscape:groupmode="layer"
     id="layer1"><path
       id="path4"
       style="display:inline;fill:#ae360b;fill-opacity:1;stroke:none;stroke-width:0.269366;stroke-opacity:1"
       d="m 62.027536,19.587048 a 6.1593641,5.5335797 34.727631 0 0 -4.87062,2.366996 6.1593641,5.5335797 34.727631 0 0 0.618412,6.620955 39.300244,44.895499 0 0 1 10.424132,-1.862988 6.1593641,5.5335797 34.727631 0 0 -2.915872,-6.057774 6.1593641,5.5335797 34.727631 0 0 -3.256052,-1.067189 z" /><path
       id="path5"
       style="display:inline;fill:#ae360b;fill-opacity:1;stroke:none;stroke-width:0.272022;stroke-opacity:1"
       d="m 73.96484,19.587235 a 5.6034063,6.2031939 49.666627 0 0 -3.25376,1.08911 5.6034063,6.2031939 49.666627 0 0 -2.924986,6.11245 39.272619,45.817735 2.5599374e-7 0 1 10.586267,1.786203 5.6034063,6.2031939 49.666627 0 0 0.460184,-6.572146 5.6034063,6.2031939 49.666627 0 0 -4.867705,-2.415617 z" /><path
       id="path3"
       style="display:inline;fill:#d93905;fill-opacity:1;stroke:none;stroke-width:0.265622;stroke-opacity:1"
       d="m 67.847087,26.458332 a 39.308843,45.243883 0 0 0 -0.378339,0.03136 v 90.424798 a 39.308843,45.243883 0 0 0 0.378339,0.0313 A 39.308843,45.243883 0 0 0 107.15626,71.702089 39.308843,45.243883 0 0 0 67.847087,26.458332 Z" /><path
       id="ellipse5"
       style="display:inline;fill:#ef3f05;fill-opacity:1;stroke:none;stroke-width:0.267265;stroke-opacity:1"
       d="M 67.997914,26.458332 A 39.789463,45.252101 0 0 0 28.310416,71.70208 39.789463,45.252101 0 0 0 67.997914,116.94583 Z" /><path
       id="ellipse4"
       style="display:inline;fill:#f16637;fill-opacity:0.992157;stroke:none;stroke-width:0.269342;stroke-opacity:1"
       d="M 106.62708,81.785705 A 42.511849,45.756057 0 0 1 67.546185,109.71975 42.511849,45.756057 0 0 1 29.36875,83.943513 39.961323,45.760302 0 0 0 67.79296,117.23985 39.961323,45.760302 0 0 0 106.62708,81.785705 Z" /><path
       id="path1"
       style="display:inline;fill:#f4be5b;fill-opacity:1;stroke:none;stroke-width:0.264195;stroke-opacity:1"
       d="M 48.871778,21.695833 A 43.580258,43.473551 0 0 0 5.2916663,65.169204 43.580258,43.473551 0 0 0 27.964901,103.1875 L 68.262498,26.250245 a 43.580258,43.473551 0 0 0 -19.39072,-4.554412 z" /><path
       id="path2"
       style="display:inline;fill:#f4be5b;fill-opacity:1;stroke:none;stroke-width:0.264195;stroke-opacity:1"
       d="M 87.124056,21.695833 A 43.58026,43.473551 0 0 1 130.70415,65.169204 43.58026,43.473551 0 0 1 108.03092,103.18749 L 67.733331,26.250245 a 43.58026,43.473551 0 0 1 19.390725,-4.554412 z" /></g></svg>
